<svg xmlns="http://www.w3.org/2000/svg" width="1024" height="1024" viewBox="0 0 256 256" fill="none">
  <defs>
    <radialGradient id="rad" cx="0.42" cy="0.22" r="0.95">
      <stop offset="0" stop-color="#FFFFFF"></stop>
      <stop offset="0.3" stop-color="#E8EDF5"></stop>
      <stop offset="0.65" stop-color="#B6BFD0"></stop>
      <stop offset="1" stop-color="#6E7889"></stop>
    </radialGradient>
  </defs>
  <path d="M 128 30 C 114 58 88 98 56 130 C 80 150 104 164 128 180 C 152 164 176 150 200 130 C 168 98 142 58 128 30 Z" fill="url(#rad)"></path>
  <path d="M 128 32 C 114 60 90 98 60 130" stroke="#FFFFFF" stroke-width="1" fill="none" opacity="0.6" stroke-linecap="round"></path>
  <path d="M 128 32 C 142 60 166 98 196 130" stroke="#FFFFFF" stroke-width="1" fill="none" opacity="0.32" stroke-linecap="round"></path>
  <path d="M 56 132 C 80 150 104 164 128 178 C 152 164 176 150 200 132" stroke="#000000" stroke-width="3" fill="none" opacity="0.07" stroke-linecap="round"></path>
</svg>